<svg width="20" height="14" viewBox="0 0 20 14" fill="none" xmlns="http://www.w3.org/2000/svg"><path d="M19.6792 7.77422L19.6782 7.77526L13.9632 13.4628C13.535 13.8888 12.8425 13.8872 12.4163 13.459C11.9902 13.0309 11.9918 12.3384 12.42 11.9123L16.2571 8.09376L1.09375 8.09376C0.489672 8.09376 0 7.60409 0 7.00001C0 6.39594 0.489672 5.90626 1.09375 5.90626L16.257 5.90626L12.42 2.08777C11.9919 1.66164 11.9902 0.969139 12.4164 0.540991C12.8426 0.112734 13.5351 0.111258 13.9632 0.537272L19.6783 6.22476L19.6793 6.2258C20.1076 6.65335 20.1063 7.3481 19.6792 7.77422Z"/></svg>