<svg width="24" height="24" viewBox="0 0 24 24" fill="none" xmlns="http://www.w3.org/2000/svg"><path d="M8.74407 13.2405C8.74407 12.9399 8.50021 12.6963 8.19932 12.6963H6.29836C5.99781 12.6963 5.75391 12.9399 5.75391 13.2405V15.1412C5.75391 15.4423 5.99781 15.6859 6.29836 15.6859H8.19932C8.50021 15.6859 8.74407 15.4423 8.74407 15.1412V13.2405Z" fill="#264D0E"/><path d="M13.4953 13.2405C13.4953 12.9399 13.2513 12.6963 12.951 12.6963H11.0498C10.7493 12.6963 10.5054 12.9399 10.5054 13.2405V15.1412C10.5054 15.4423 10.7493 15.6859 11.0498 15.6859H12.951C13.2513 15.6859 13.4953 15.4423 13.4953 15.1412V13.2405Z" fill="#264D0E"/><path d="M18.246 13.2405C18.246 12.9399 18.0021 12.6963 17.7016 12.6963H15.8006C15.4997 12.6963 15.2559 12.9399 15.2559 13.2405V15.1412C15.2559 15.4423 15.4997 15.6859 15.8006 15.6859H17.7016C18.0021 15.6859 18.246 15.4423 18.246 15.1412V13.2405Z" fill="#264D0E"/><path d="M8.74407 17.9918C8.74407 17.6906 8.50021 17.4473 8.19932 17.4473H6.29836C5.99781 17.4473 5.75391 17.6906 5.75391 17.9918V19.8921C5.75391 20.193 5.99781 20.4366 6.29836 20.4366H8.19932C8.50021 20.4366 8.74407 20.1929 8.74407 19.8921V17.9918Z" fill="#264D0E"/><path d="M13.4953 17.9918C13.4953 17.6906 13.2513 17.4473 12.951 17.4473H11.0498C10.7493 17.4473 10.5054 17.6906 10.5054 17.9918V19.8921C10.5054 20.193 10.7493 20.4366 11.0498 20.4366H12.951C13.2513 20.4366 13.4953 20.1929 13.4953 19.8921V17.9918Z" fill="#264D0E"/><path d="M18.246 17.9918C18.246 17.6906 18.0021 17.4473 17.7018 17.4473H15.8006C15.4997 17.4473 15.2559 17.6906 15.2559 17.9918V19.8921C15.2559 20.193 15.4997 20.4366 15.8006 20.4366H17.7018C18.0021 20.4366 18.246 20.1929 18.246 19.8921V17.9918Z" fill="#264D0E"/><path d="M21.6452 2.67204V5.57524C21.6452 6.88745 20.5807 7.94489 19.2686 7.94489H17.7694C16.4573 7.94489 15.3787 6.88745 15.3787 5.57524V2.66162H8.62146V5.57524C8.62146 6.88745 7.54288 7.94489 6.23096 7.94489H4.73148C3.41951 7.94489 2.35504 6.88745 2.35504 5.57524V2.67204C1.20836 2.70661 0.266113 3.65544 0.266113 4.82169V21.8358C0.266113 23.024 1.22916 23.9998 2.41733 23.9998H21.5828C22.7692 23.9998 23.734 23.0219 23.734 21.8358V4.82169C23.734 3.65544 22.7919 2.70661 21.6452 2.67204ZM20.9489 20.7763C20.9489 21.2898 20.5325 21.7063 20.0188 21.7063H3.94036C3.42669 21.7063 3.01036 21.2898 3.01036 20.7763V11.9879C3.01036 11.4742 3.42664 11.0576 3.94036 11.0576H20.0188C20.5325 11.0576 20.9488 11.4742 20.9488 11.9879L20.9489 20.7763Z" fill="#264D0E"/><path d="M4.72619 6.38875H6.20911C6.65921 6.38875 7.02416 6.02434 7.02416 5.57423V0.814812C7.02416 0.364657 6.65921 0 6.20911 0H4.72619C4.27604 0 3.91113 0.364657 3.91113 0.814812V5.57423C3.91113 6.02434 4.27604 6.38875 4.72619 6.38875Z" fill="#264D0E"/><path d="M17.7501 6.38875H19.233C19.6828 6.38875 20.0477 6.02434 20.0477 5.57423V0.814812C20.0478 0.364657 19.6828 0 19.233 0H17.7501C17.3 0 16.9351 0.364657 16.9351 0.814812V5.57423C16.9351 6.02434 17.3 6.38875 17.7501 6.38875Z" fill="#264D0E"/></svg>