<svg width="27" height="28" viewBox="0 0 27 28" fill="none" xmlns="http://www.w3.org/2000/svg"><path d="M17.1266 20.6364C15.9865 20.6364 14.8672 20.4581 13.8064 20.1076C13.2866 19.9303 12.6477 20.0929 12.3304 20.4187L10.2367 21.9993C7.80862 20.7031 6.31295 19.208 5.03452 16.7981L6.56855 14.7589C6.9671 14.3609 7.11005 13.7795 6.93878 13.234C6.58673 12.1676 6.40789 11.0488 6.40789 9.90828C6.40794 9.08436 5.73765 8.41406 4.91378 8.41406H1.49416C0.670296 8.41406 0 9.08436 0 9.90823C0 19.3519 7.68288 27.0348 17.1266 27.0348C17.9504 27.0348 18.6207 26.3645 18.6207 25.5406V22.1305C18.6207 21.3067 17.9504 20.6364 17.1266 20.6364Z" fill="#264D0E"/><path d="M25.5268 2.96289H11.714C11.4873 2.96289 11.275 3.01863 11.083 3.11051L18.5877 10.6152L20.2697 8.99868C20.2697 8.99868 20.2699 8.99851 20.2699 8.99845C20.2699 8.99838 20.2701 8.99832 20.2701 8.99832L26.1581 3.11064C25.966 3.0187 25.7536 2.96289 25.5268 2.96289Z" fill="#264D0E"/><path d="M26.8524 3.80469L21.3115 9.34531L26.8522 14.886C26.9441 14.694 26.9999 14.4817 26.9999 14.255V4.43549C26.9999 4.20889 26.9443 3.99666 26.8524 3.80469Z" fill="#264D0E"/><path d="M10.3888 3.80469C10.297 3.99672 10.2412 4.20899 10.2412 4.43572V14.2552C10.2412 14.4818 10.2969 14.6941 10.3887 14.8861L15.9296 9.34547L10.3888 3.80469Z" fill="#264D0E"/><path d="M20.6174 10.0391L18.9351 11.6558C18.8392 11.7517 18.7135 11.7997 18.588 11.7997C18.4624 11.7997 18.3367 11.7517 18.2408 11.6558L16.624 10.0391L11.083 15.5797C11.2751 15.6717 11.4875 15.7275 11.7143 15.7275H25.527C25.7538 15.7275 25.966 15.6717 26.1581 15.5799L20.6174 10.0391Z" fill="#264D0E"/></svg>