<svg width="26" height="26" viewBox="0 0 26 26" fill="none" xmlns="http://www.w3.org/2000/svg"><path d="M13.2559 26.0004C13.1698 26.0004 13.0837 26.0004 12.997 26C10.959 26.0049 9.07596 25.9532 7.24466 25.8417C5.5657 25.7395 4.03314 25.1593 2.81241 24.1639C1.63452 23.2034 0.830154 21.9047 0.421722 20.3043C0.0662537 18.911 0.0474091 17.5433 0.0293579 16.2204C0.0162658 15.2712 0.0027771 14.1465 0 13.0027C0.0027771 11.8542 0.0162658 10.7295 0.0293579 9.78031C0.0474091 8.45762 0.0662537 7.0899 0.421722 5.69639C0.830154 4.09598 1.63452 2.79729 2.81241 1.83681C4.03314 0.841419 5.5657 0.261203 7.24486 0.159046C9.07616 0.0477634 10.9596 -0.00420808 13.002 0.000751033C15.0406 -0.00361298 16.923 0.0477634 18.7543 0.159046C20.4333 0.261203 21.9659 0.841419 23.1866 1.83681C24.3647 2.79729 25.1689 4.09598 25.5773 5.69639C25.9328 7.0897 25.9516 8.45762 25.9697 9.78031C25.9827 10.7295 25.9964 11.8542 25.999 12.998V13.0027C25.9964 14.1465 25.9827 15.2712 25.9697 16.2204C25.9516 17.5431 25.933 18.9108 25.5773 20.3043C25.1689 21.9047 24.3647 23.2034 23.1866 24.1639C21.9659 25.1593 20.4333 25.7395 18.7543 25.8417C17.0006 25.9484 15.1991 26.0004 13.2559 26.0004ZM12.997 23.9687C15.0019 23.9735 16.8427 23.9229 18.631 23.8142C19.9005 23.737 21.0012 23.325 21.903 22.5897C22.7365 21.9099 23.3106 20.972 23.6091 19.8021C23.9051 18.6422 23.9221 17.3969 23.9386 16.1926C23.9515 15.2498 23.965 14.133 23.9678 13.0004C23.965 11.8675 23.9515 10.7509 23.9386 9.80808C23.9221 8.60381 23.9051 7.35848 23.6091 6.19845C23.3106 5.02849 22.7365 4.09063 21.903 3.41083C21.0012 2.67569 19.9005 2.26369 18.631 2.18653C16.8427 2.07763 15.0019 2.02744 13.0018 2.0318C10.9973 2.02704 9.1563 2.07763 7.36804 2.18653C6.09851 2.26369 4.99779 2.67569 4.09602 3.41083C3.2625 4.09063 2.68843 5.02849 2.38989 6.19845C2.09393 7.35848 2.07687 8.60361 2.06041 9.80808C2.04752 10.7517 2.03403 11.8691 2.03125 13.0027C2.03403 14.1314 2.04752 15.249 2.06041 16.1926C2.07687 17.3969 2.09393 18.6422 2.38989 19.8021C2.68843 20.972 3.2625 21.9099 4.09602 22.5897C4.99779 23.3248 6.09851 23.7368 7.36804 23.814C9.1563 23.9229 10.9977 23.9737 12.997 23.9687ZM12.9486 19.348C9.44868 19.348 6.60097 16.5005 6.60097 13.0004C6.60097 9.50022 9.44868 6.6527 12.9486 6.6527C16.4488 6.6527 19.2963 9.50022 19.2963 13.0004C19.2963 16.5005 16.4488 19.348 12.9486 19.348ZM12.9486 8.68395C10.5686 8.68395 8.63222 10.6204 8.63222 13.0004C8.63222 15.3803 10.5686 17.3168 12.9486 17.3168C15.3288 17.3168 17.265 15.3803 17.265 13.0004C17.265 10.6204 15.3288 8.68395 12.9486 8.68395ZM20.0072 4.62145C19.166 4.62145 18.4838 5.30343 18.4838 6.14489C18.4838 6.98635 19.166 7.66833 20.0072 7.66833C20.8487 7.66833 21.5307 6.98635 21.5307 6.14489C21.5307 5.30343 20.8487 4.62145 20.0072 4.62145Z" fill="#7CBA55"/></svg>