<svg width="26" height="26" viewBox="0 0 26 26" fill="none" xmlns="http://www.w3.org/2000/svg"><path d="M14.4364 13.0008L25.7025 1.73457C26.0992 1.33792 26.0992 0.694822 25.7025 0.298221C25.3059 -0.0983798 24.6628 -0.0984305 24.2662 0.298221L13 11.5644L1.73383 0.298221C1.33718 -0.0984305 0.694089 -0.0984305 0.297489 0.298221C-0.0991121 0.694873 -0.0991629 1.33797 0.297489 1.73457L11.5636 13.0007L0.297489 24.2669C-0.0991629 24.6636 -0.0991629 25.3067 0.297489 25.7033C0.495789 25.9016 0.755738 26.0007 1.01569 26.0007C1.27564 26.0007 1.53553 25.9016 1.73388 25.7033L13 14.4371L24.2661 25.7033C24.4644 25.9016 24.7244 26.0007 24.9843 26.0007C25.2443 26.0007 25.5042 25.9016 25.7025 25.7033C26.0992 25.3066 26.0992 24.6635 25.7025 24.2669L14.4364 13.0008Z" fill="#9FF16B"/></svg>