<svg width="20" height="14" viewBox="0 0 20 14" fill="none" xmlns="http://www.w3.org/2000/svg"><path d="M0.320797 6.22578L0.321781 6.22474L6.03684 0.537246C6.46499 0.111176 7.1575 0.112762 7.58368 0.540964C8.0098 0.969112 8.00816 1.66162 7.58002 2.08774L3.74292 5.90624H18.9062C19.5103 5.90624 20 6.39591 20 6.99999C20 7.60406 19.5103 8.09374 18.9062 8.09374H3.74298L7.57996 11.9122C8.00811 12.3384 8.00975 13.0309 7.58363 13.459C7.15745 13.8873 6.46488 13.8887 6.03679 13.4627L0.321726 7.77524L0.320742 7.7742C-0.107626 7.34665 -0.106258 6.6519 0.320797 6.22578Z"/></svg>