<svg width="20" height="23" viewBox="0 0 20 23" fill="none" xmlns="http://www.w3.org/2000/svg"><path d="M5.5 21.3253C5.5 21.8776 5.05228 22.3253 4.5 22.3253L1.25 22.3253C0.697711 22.3253 0.249994 21.8776 0.249994 21.3253L0.249995 1.67468C0.249995 1.1224 0.69771 0.674682 1.25 0.674682L4.5 0.674682C5.05228 0.674682 5.5 1.1224 5.5 1.67468L5.5 21.3253Z" fill="#497A2A"/><path d="M19.5 21.3253C19.5 21.8776 19.0523 22.3253 18.5 22.3253L15.25 22.3253C14.6977 22.3253 14.25 21.8776 14.25 21.3253L14.25 1.67468C14.25 1.1224 14.6977 0.674682 15.25 0.674682L18.5 0.674682C19.0523 0.674682 19.5 1.1224 19.5 1.67468L19.5 21.3253Z" fill="#497A2A"/></svg>