<svg width="27" height="26" viewBox="0 0 27 26" fill="none" xmlns="http://www.w3.org/2000/svg"><path d="M22.9881 3.77567C20.4517 1.34233 17.0775 0.00138855 13.4864 0C9.90335 0 6.52382 1.33975 3.97073 3.77249C1.41312 6.2094 0.0032959 9.44789 0 12.8796V12.8836V12.8859C0.000411987 14.963 0.567101 17.0583 1.6428 18.971L0.0368729 26L7.4203 24.3827C9.29031 25.2903 11.3768 25.7687 13.4813 25.7695H13.4866C17.069 25.7695 20.4486 24.4296 23.0021 21.9966C25.562 19.5577 26.9724 16.3234 26.974 12.8895C26.9751 9.47983 25.5597 6.24312 22.9881 3.77567ZM13.4864 23.7402H13.4817C11.5921 23.7394 9.71981 23.2826 8.06754 22.4187L7.71838 22.2362L2.80872 23.3116L3.87515 18.6445L3.66957 18.3031C2.64743 16.6057 2.10732 14.7319 2.10732 12.8838C2.11123 6.90169 7.21534 2.02927 13.486 2.02927C16.5153 2.03046 19.3618 3.16133 21.5008 5.21321C23.6722 7.29683 24.8676 10.0228 24.8665 12.8889C24.8641 18.8724 19.7589 23.7402 13.4864 23.7402Z" fill="#7CBA55"/><path d="M9.8168 7.20401H9.22559C9.01981 7.20401 8.68568 7.2782 8.40306 7.57436C8.12023 7.87071 7.32324 8.58701 7.32324 10.0438C7.32324 11.5006 8.42881 12.9082 8.58289 13.1059C8.73718 13.3035 10.717 16.3885 13.8526 17.5753C16.4586 18.5616 16.9891 18.3654 17.5545 18.316C18.1202 18.2668 19.3798 17.5999 19.6369 16.9086C19.894 16.2173 19.894 15.6246 19.817 15.5008C19.7397 15.3774 19.5339 15.3034 19.2256 15.1554C18.917 15.0073 17.405 14.2789 17.1222 14.1799C16.8393 14.0813 16.6337 14.0319 16.428 14.3285C16.2222 14.6244 15.6163 15.3092 15.4363 15.5067C15.2565 15.7045 15.0764 15.7293 14.7679 15.5811C14.4593 15.4326 13.4759 15.1144 12.2974 14.1059C11.3801 13.321 10.7436 12.32 10.5635 12.0237C10.3837 11.7275 10.5444 11.5672 10.6991 11.4194C10.8377 11.2869 11.0249 11.1056 11.1792 10.9329C11.3333 10.7599 11.3772 10.6365 11.4802 10.4389C11.583 10.2414 11.5315 10.0684 11.4544 9.92041C11.3772 9.77223 10.7852 8.30811 10.5108 7.72253H10.511C10.2799 7.2294 10.0366 7.21274 9.8168 7.20401Z" fill="#7CBA55"/></svg>