<svg width="19" height="19" viewBox="0 0 19 19" fill="none" xmlns="http://www.w3.org/2000/svg"><path d="M17.2422 9.61845C17.0458 8.76543 16.3481 8.1362 15.5083 8.04254C13.52 7.82043 11.5066 7.81938 9.503 7.82043C7.49859 7.81938 5.48559 7.82043 3.49668 8.04254C2.65729 8.13641 1.95995 8.76564 1.76383 9.61845C1.48431 10.8331 1.48096 12.1591 1.48096 13.4098C1.48096 14.6605 1.48096 15.9862 1.76048 17.2009C1.9566 18.0537 2.65393 18.6829 3.49375 18.7768C5.48224 18.9991 7.49524 19 9.49944 18.9991C11.5039 19.0002 13.5164 18.9991 15.5055 18.7768C16.3449 18.6829 17.0427 18.0537 17.2388 17.2009C17.5181 15.9862 17.5196 14.6605 17.5196 13.4098C17.5194 12.1589 17.5215 10.8331 17.2422 9.61845ZM6.05573 10.5599H4.89491V16.7282H3.81664V10.5599H2.67698V9.54951H6.05573V10.5599ZM8.9844 16.7284H8.01447V16.1448C7.62913 16.5865 7.26328 16.8019 6.90686 16.8019C6.59445 16.8019 6.37947 16.6754 6.28245 16.4044C6.22965 16.2427 6.19696 15.9866 6.19696 15.6091V11.3794H7.16606V15.3176C7.16606 15.5447 7.16606 15.6627 7.17486 15.6945C7.19812 15.845 7.27167 15.9213 7.40158 15.9213C7.59603 15.9213 7.79927 15.7714 8.01426 15.4674V11.3794H8.98419L8.9844 16.7284ZM12.6666 15.1229C12.6666 15.6176 12.6332 15.9741 12.5685 16.2008C12.439 16.5987 12.1798 16.8019 11.7943 16.8019C11.4494 16.8019 11.1166 16.6104 10.7925 16.2102V16.7286H9.82338V9.54951H10.7925V11.894C11.1055 11.5087 11.4378 11.3138 11.7943 11.3138C12.1798 11.3138 12.4392 11.5168 12.5685 11.9173C12.6337 12.1325 12.6666 12.4861 12.6666 12.9926V15.1229ZM16.3244 14.2305H14.386V15.1787C14.386 15.6738 14.548 15.9211 14.8811 15.9211C15.1198 15.9211 15.2587 15.7913 15.314 15.5324C15.323 15.4798 15.3358 15.2644 15.3358 14.8757H16.3246V15.0171C16.3246 15.3295 16.3127 15.5447 16.3039 15.6415C16.2714 15.8561 16.1951 16.0508 16.0776 16.2222C15.8092 16.6106 15.4115 16.8021 14.9052 16.8021C14.3982 16.8021 14.0122 16.6196 13.732 16.2544C13.5265 15.9866 13.4209 15.5651 13.4209 14.9966V13.1231C13.4209 12.5513 13.5145 12.1331 13.7205 11.8628C14.0005 11.4967 14.3862 11.3144 14.8813 11.3144C15.3677 11.3144 15.7532 11.4967 16.0248 11.8628C16.2278 12.1331 16.3248 12.5513 16.3248 13.1231V14.2305H16.3244Z"/><path d="M14.8726 12.1875C14.5486 12.1875 14.3862 12.435 14.3862 12.9295V13.4244H15.3553V12.9295C15.3551 12.435 15.1931 12.1875 14.8726 12.1875Z"/><path d="M11.2759 12.1875C11.1162 12.1875 10.9544 12.2629 10.7925 12.4232V15.6834C10.9542 15.8456 11.1162 15.9222 11.2759 15.9222C11.5554 15.9222 11.6975 15.6834 11.6975 15.2004V12.9173C11.6975 12.435 11.5554 12.1875 11.2759 12.1875Z"/><path d="M11.817 7.32762C12.1742 7.32762 12.546 7.11055 12.9359 6.66382V7.25345H13.9155V1.84766H12.9359V5.97927C12.7188 6.28603 12.5131 6.43773 12.3171 6.43773C12.186 6.43773 12.1089 6.3602 12.0875 6.20829C12.0756 6.17623 12.0756 6.057 12.0756 5.82756V1.84766H11.0991V6.12217C11.0991 6.50394 11.1318 6.7623 11.1859 6.92594C11.2843 7.19981 11.5016 7.32762 11.817 7.32762Z"/><path d="M4.99793 4.316V7.25389H6.08416V4.316L7.39082 0H6.29243L5.55131 2.84863L4.78022 0H3.63721C3.86623 0.672398 4.10447 1.34815 4.33349 2.02117C4.68195 3.03281 4.89945 3.79552 4.99793 4.316Z"/><path d="M8.84646 7.32855C9.33719 7.32855 9.71855 7.14395 9.98906 6.77516C10.1946 6.50465 10.2931 6.07846 10.2931 5.50392V3.61098C10.2931 3.03308 10.1948 2.61066 9.98906 2.33763C9.71855 1.9678 9.3374 1.7832 8.84646 1.7832C8.35825 1.7832 7.9771 1.9678 7.70596 2.33763C7.4979 2.61066 7.39941 3.03308 7.39941 3.61098V5.50392C7.39941 6.07846 7.4979 6.50465 7.70596 6.77516C7.97689 7.14395 8.35825 7.32855 8.84646 7.32855ZM8.37899 3.41464C8.37899 2.91448 8.53069 2.66514 8.84646 2.66514C9.16223 2.66514 9.31352 2.91427 9.31352 3.41464V5.68852C9.31352 6.18868 9.16223 6.43886 8.84646 6.43886C8.53069 6.43886 8.37899 6.18868 8.37899 5.68852V3.41464Z"/></svg>