<svg width="26" height="26" viewBox="0 0 26 26" fill="none" xmlns="http://www.w3.org/2000/svg"><path d="M12.9991 22.4449C12.9969 22.4449 12.9945 22.4449 12.9921 22.4449C12.2076 22.4396 5.27199 22.3763 3.30699 21.8449C1.93371 21.4757 0.849645 20.3929 0.479497 19.0194C-0.0346644 17.0891 -0.00193419 13.3727 0.00163637 13.076C-0.00173582 12.7806 -0.0348627 9.03352 0.47791 7.08736C0.478505 7.08558 0.478902 7.08359 0.479497 7.08181C0.845479 5.724 1.95394 4.60761 3.30361 4.23746C3.30699 4.23647 3.31056 4.23567 3.31393 4.23468C5.25671 3.72409 12.206 3.66161 12.9921 3.65625H13.0062C13.7927 3.66161 20.7468 3.72488 22.6938 4.2571C24.0635 4.62526 25.1467 5.70674 25.5179 7.07844C26.0513 9.02598 26.0019 12.7812 25.9965 13.0982C26.0003 13.4104 26.0314 17.0935 25.5202 19.0335C25.5199 19.0355 25.5193 19.0372 25.5189 19.039C25.1485 20.4125 24.0646 21.4954 22.6898 21.8649C22.688 21.8655 22.686 21.8659 22.6842 21.8665C20.7416 22.3769 13.7921 22.4394 13.0062 22.4449C13.0038 22.4449 13.0015 22.4449 12.9991 22.4449ZM2.44132 7.60827C1.98984 9.3261 2.03249 13.0254 2.03289 13.0627V13.0895C2.0194 14.1154 2.06681 17.0865 2.44152 18.4937C2.62322 19.1676 3.15782 19.7014 3.83583 19.8837C5.28567 20.2758 10.9345 20.3992 12.9991 20.4137C15.069 20.3992 20.7262 20.2792 22.1653 19.9027C22.8411 19.7198 23.3739 19.1878 23.5568 18.5132C23.9319 17.0853 23.979 14.1287 23.9653 13.1093C23.9653 13.0986 23.9653 13.0879 23.9655 13.0772C23.9841 12.0389 23.9474 9.03312 23.5586 7.61462C23.5582 7.61323 23.5578 7.61184 23.5576 7.61045C23.3751 6.93363 22.8403 6.39983 22.1623 6.21753C20.7266 5.82497 15.0686 5.70198 12.9991 5.6875C10.9305 5.70198 5.27893 5.8218 3.83543 6.1979C3.17031 6.38237 2.62362 6.93522 2.44132 7.60827ZM24.5381 18.7748H24.5387H24.5381ZM10.4102 17.1637V8.93731L17.5196 13.0506L10.4102 17.1637Z" fill="#7CBA55"/></svg>